<svg width="48" height="48" viewBox="0 0 48 48" fill="none" xmlns="http://www.w3.org/2000/svg">
<path d="M5.14341 20.5742H8.57199C9.02664 20.5742 9.46268 20.7548 9.78417 21.0763C10.1057 21.3978 10.2863 21.8338 10.2863 22.2885V30.8599C10.2863 31.3146 10.1057 31.7506 9.78417 32.0721C9.46268 32.3936 9.02664 32.5742 8.57199 32.5742H5.14341C4.2341 32.5742 3.36203 32.213 2.71905 31.57C2.07607 30.927 1.71484 30.055 1.71484 29.1456V24.0028C1.71484 23.0935 2.07607 22.2214 2.71905 21.5784C3.36203 20.9354 4.2341 20.5742 5.14341 20.5742V20.5742Z" stroke="#D4F21D" stroke-width="3" stroke-linecap="round" stroke-linejoin="round"/>
<path d="M42.8576 32.5742H39.429C38.9743 32.5742 38.5383 32.3936 38.2168 32.0721C37.8953 31.7506 37.7147 31.3146 37.7147 30.8599V22.2885C37.7147 21.8338 37.8953 21.3978 38.2168 21.0763C38.5383 20.7548 38.9743 20.5742 39.429 20.5742H42.8576C43.7669 20.5742 44.6389 20.9354 45.2819 21.5784C45.9249 22.2214 46.2861 23.0935 46.2861 24.0028V29.1456C46.2861 30.055 45.9249 30.927 45.2819 31.57C44.6389 32.213 43.7669 32.5742 42.8576 32.5742V32.5742Z" stroke="#D4F21D" stroke-width="3" stroke-linecap="round" stroke-linejoin="round"/>
<path d="M32.5718 42.0028C34.3904 42.0028 36.1345 41.2803 37.4205 39.9944C38.7065 38.7084 39.4289 36.9643 39.4289 35.1456V32.5742" stroke="#D4F21D" stroke-width="3" stroke-linecap="round" stroke-linejoin="round"/>
<path d="M28.2865 37.7148C29.4231 37.7148 30.5132 38.1664 31.3169 38.9701C32.1207 39.7738 32.5722 40.8639 32.5722 42.0006C32.5722 43.1372 32.1207 44.2273 31.3169 45.031C30.5132 45.8347 29.4231 46.2863 28.2865 46.2863H23.1436C22.007 46.2863 20.9169 45.8347 20.1132 45.031C19.3094 44.2273 18.8579 43.1372 18.8579 42.0006C18.8579 40.8639 19.3094 39.7738 20.1132 38.9701C20.9169 38.1664 22.007 37.7148 23.1436 37.7148H28.2865Z" stroke="#D4F21D" stroke-width="3" stroke-linecap="round" stroke-linejoin="round"/>
<path d="M8.57178 20.572V17.1434C8.57178 13.0515 10.1973 9.12719 13.0907 6.23377C15.9841 3.34035 19.9084 1.71484 24.0003 1.71484C28.0923 1.71484 32.0166 3.34035 34.91 6.23377C37.8034 9.12719 39.4289 13.0515 39.4289 17.1434V20.572" stroke="#D4F21D" stroke-width="3" stroke-linecap="round" stroke-linejoin="round"/>
<path d="M18.8579 13.7148V18.8577" stroke="#D4F21D" stroke-width="3" stroke-linecap="round" stroke-linejoin="round"/>
<path d="M29.1436 13.7148V18.8577" stroke="#D4F21D" stroke-width="3" stroke-linecap="round" stroke-linejoin="round"/>
<path d="M18.8579 25.7148C18.8579 30.2748 29.1436 30.2748 29.1436 25.7148" stroke="#D4F21D" stroke-width="3" stroke-linecap="round" stroke-linejoin="round"/>
</svg>
