<svg width="61" height="60" viewBox="0 0 61 60" fill="none" xmlns="http://www.w3.org/2000/svg">
<rect x="4.25" y="3.74805" width="52.5" height="52.5" rx="26.25" fill="url(#paint0_radial_932_6484)"/>
<rect x="4.25" y="3.74805" width="52.5" height="52.5" rx="26.25" fill="url(#paint1_radial_932_6484)"/>
<rect x="4.25" y="3.74805" width="52.5" height="52.5" rx="26.25" fill="url(#paint2_radial_932_6484)"/>
<path d="M43.625 19.6855C43.625 21.2388 42.3658 22.498 40.8125 22.498C39.2592 22.498 38 21.2388 38 19.6855C38 18.1322 39.2592 16.873 40.8125 16.873C42.3658 16.873 43.625 18.1322 43.625 19.6855Z" fill="white"/>
<path fill-rule="evenodd" clip-rule="evenodd" d="M30.5 39.373C35.6777 39.373 39.875 35.1757 39.875 29.998C39.875 24.8204 35.6777 20.623 30.5 20.623C25.3223 20.623 21.125 24.8204 21.125 29.998C21.125 35.1757 25.3223 39.373 30.5 39.373ZM30.5 35.623C33.6066 35.623 36.125 33.1046 36.125 29.998C36.125 26.8914 33.6066 24.373 30.5 24.373C27.3934 24.373 24.875 26.8914 24.875 29.998C24.875 33.1046 27.3934 35.623 30.5 35.623Z" fill="white"/>
<path fill-rule="evenodd" clip-rule="evenodd" d="M11.75 29.248C11.75 22.9475 11.75 19.7972 12.9762 17.3907C14.0548 15.2738 15.7758 13.5528 17.8926 12.4742C20.2991 11.248 23.4494 11.248 29.75 11.248H31.25C37.5506 11.248 40.7009 11.248 43.1074 12.4742C45.2242 13.5528 46.9452 15.2738 48.0238 17.3907C49.25 19.7972 49.25 22.9475 49.25 29.248V30.748C49.25 37.0486 49.25 40.1989 48.0238 42.6054C46.9452 44.7223 45.2242 46.4433 43.1074 47.5219C40.7009 48.748 37.5506 48.748 31.25 48.748H29.75C23.4494 48.748 20.2991 48.748 17.8926 47.5219C15.7758 46.4433 14.0548 44.7223 12.9762 42.6054C11.75 40.1989 11.75 37.0486 11.75 30.748V29.248ZM29.75 14.998H31.25C34.4622 14.998 36.6458 15.001 38.3336 15.1389C39.9777 15.2732 40.8184 15.5167 41.4049 15.8155C42.8161 16.5345 43.9635 17.6819 44.6825 19.0931C44.9814 19.6796 45.2249 20.5204 45.3592 22.1644C45.4971 23.8523 45.5 26.0359 45.5 29.248V30.748C45.5 33.9602 45.4971 36.1438 45.3592 37.8317C45.2249 39.4757 44.9814 40.3165 44.6825 40.903C43.9635 42.3142 42.8161 43.4615 41.4049 44.1806C40.8184 44.4794 39.9777 44.7229 38.3336 44.8572C36.6458 44.9951 34.4622 44.998 31.25 44.998H29.75C26.5378 44.998 24.3542 44.9951 22.6664 44.8572C21.0223 44.7229 20.1816 44.4794 19.5951 44.1806C18.1839 43.4615 17.0365 42.3142 16.3175 40.903C16.0186 40.3165 15.7751 39.4757 15.6408 37.8317C15.5029 36.1438 15.5 33.9602 15.5 30.748V29.248C15.5 26.0359 15.5029 23.8523 15.6408 22.1644C15.7751 20.5204 16.0186 19.6796 16.3175 19.0931C17.0365 17.6819 18.1839 16.5345 19.5951 15.8155C20.1816 15.5167 21.0223 15.2732 22.6664 15.1389C24.3542 15.001 26.5378 14.998 29.75 14.998Z" fill="white"/>
<defs>
<radialGradient id="paint0_radial_932_6484" cx="0" cy="0" r="1" gradientUnits="userSpaceOnUse" gradientTransform="translate(23 43.123) rotate(-55.3758) scale(47.8493)">
<stop stop-color="#B13589"/>
<stop offset="0.79309" stop-color="#C62F94"/>
<stop offset="1" stop-color="#8A3AC8"/>
</radialGradient>
<radialGradient id="paint1_radial_932_6484" cx="0" cy="0" r="1" gradientUnits="userSpaceOnUse" gradientTransform="translate(21.125 58.123) rotate(-65.1363) scale(42.3642)">
<stop stop-color="#E0E8B7"/>
<stop offset="0.444662" stop-color="#FB8A2E"/>
<stop offset="0.71474" stop-color="#E2425C"/>
<stop offset="1" stop-color="#E2425C" stop-opacity="0"/>
</radialGradient>
<radialGradient id="paint2_radial_932_6484" cx="0" cy="0" r="1" gradientUnits="userSpaceOnUse" gradientTransform="translate(1.4375 5.62305) rotate(-8.1301) scale(72.9204 15.5969)">
<stop offset="0.156701" stop-color="#406ADC"/>
<stop offset="0.467799" stop-color="#6A45BE"/>
<stop offset="1" stop-color="#6A45BE" stop-opacity="0"/>
</radialGradient>
</defs>
</svg>
