<svg width="357" height="52" viewBox="0 0 357 52" fill="none" xmlns="http://www.w3.org/2000/svg">
<path d="M68.645 32.9344H69.763C72.5379 32.9344 73.5461 32.0863 73.5461 29.7392V11.2784H91.5433V32.9344H93.8491V40.0347H90.4353V36.1295H72.0788V40.0347H68.665V32.9344H68.645ZM76.4508 32.9344H88.1096V14.4736H76.9499V30.4493C76.9499 31.3763 76.7702 32.2244 76.4508 32.9344Z" fill="#414141"/>
<path d="M98.1413 27.2541C98.1413 21.5344 102.064 17.6687 107.933 17.6687C113.803 17.6687 117.756 21.5344 117.756 27.8951V28.0726H101.775C101.954 32.3723 103.861 34.1769 108.393 34.1769C111.527 34.1769 113.144 33.2894 113.793 30.9818L117.286 31.2974C116.208 34.9166 113.184 36.8396 108.582 36.8396C102.104 36.8396 98.1413 33.0034 98.1413 27.2541ZM101.845 25.3015H113.972C113.433 21.7514 111.527 20.3313 107.924 20.3313C104.32 20.3313 102.314 21.8204 101.845 25.3015Z" fill="#414141"/>
<path d="M120.281 30.8043L123.665 30.4493C123.665 33.1119 125.032 34.0685 128.805 34.0685C132.149 34.0685 133.517 33.319 133.517 31.5143C133.517 29.2067 131.251 28.0726 126.679 28.0726V25.3015C131.61 25.3015 133.188 24.7 133.188 22.8559C133.188 21.1893 131.86 20.4398 128.835 20.4398C125.272 20.4398 123.944 21.4654 123.944 24.2759L120.6 23.9209C120.6 19.9763 123.695 17.6687 128.915 17.6687C133.697 17.6687 136.541 19.5818 136.541 22.8164C136.541 25.1635 135.064 26.6526 132.688 26.6526V27.4021C135.354 27.4021 137.011 28.9306 137.011 31.3763C137.011 34.7489 133.846 36.8396 128.805 36.8396C123.765 36.8396 120.281 34.532 120.281 30.8043Z" fill="#414141"/>
<path d="M150.067 36.8396C144.197 36.8396 140.245 33.0034 140.245 27.2541C140.245 21.5048 144.168 17.6687 150.037 17.6687C155.906 17.6687 159.859 21.5344 159.859 27.2541C159.859 32.9738 155.936 36.8396 150.067 36.8396ZM150.027 20.3313C145.675 20.3313 143.838 22.3924 143.838 27.2541C143.838 32.1159 145.675 34.1769 150.027 34.1769C154.379 34.1769 156.255 32.1159 156.255 27.2541C156.255 22.3924 154.389 20.3313 150.027 20.3313Z" fill="#414141"/>
<path d="M163.981 43.2299V18.3787H166.966L167.325 20.4003C168.803 18.6943 170.959 17.6687 173.843 17.6687C179.383 17.6687 183.346 21.5344 183.346 27.2541C183.346 32.9738 179.423 36.8396 173.883 36.8396C171.009 36.8396 168.843 35.814 167.335 34.1079V43.2299H163.981ZM167.325 27.5401C167.505 32.0173 169.382 34.1769 173.694 34.1769C178.006 34.1769 179.743 32.1159 179.743 27.2541C179.743 22.3924 177.866 20.3313 173.694 20.3313C169.521 20.3313 167.505 22.5009 167.325 26.9681V27.5401Z" fill="#414141"/>
<path d="M190.833 18.3787V34.315L198.708 18.3787H204.757V36.1295H201.413V20.1933L193.528 36.1295H187.479V18.3787H190.833Z" fill="#414141"/>
<path d="M208.91 27.2541C208.91 21.5344 212.832 17.6687 218.702 17.6687C224.571 17.6687 228.524 21.5344 228.524 27.8951V28.0726H212.543C212.723 32.3723 214.629 34.1769 219.161 34.1769C222.295 34.1769 223.912 33.2894 224.561 30.9818L228.055 31.2974C226.977 34.9166 223.952 36.8396 219.341 36.8396C212.862 36.8396 208.9 33.0034 208.9 27.2541H208.91ZM212.613 25.3015H224.741C224.202 21.7514 222.295 20.3313 218.692 20.3313C215.088 20.3313 213.082 21.8204 212.613 25.3015Z" fill="#414141"/>
<path d="M232.646 18.3787H235.99V25.3015H246.571V18.3787H249.915V36.1295H246.571V28.0726H235.99V36.1295H232.646V18.3787Z" fill="#414141"/>
<path d="M253.528 21.1498V18.3787H270.907V21.1498H263.89V36.1295H260.546V21.1498H253.528Z" fill="#414141"/>
<path d="M273.253 30.7648C273.253 25.7256 280.739 22.2839 288.225 23.9111C287.507 21.426 285.74 20.3215 282.576 20.3215C279.591 20.3215 277.934 21.3175 277.285 23.5166L273.792 23.1616C274.84 19.7495 278.184 17.6588 282.605 17.6588C288.545 17.6588 291.958 21.4555 291.958 27.2443V36.0802L288.615 36.1197V32.2835C284.762 35.2617 282.246 36.4747 279.801 36.4747C276.207 36.4747 273.253 33.9205 273.253 30.755V30.7648ZM288.615 27.0766C283.005 25.3706 276.736 27.4316 276.736 30.9128C276.736 32.4019 277.924 33.3979 280.01 33.3979C282.566 33.3979 285.59 31.9088 288.615 29.2067V27.0766Z" fill="#414141"/>
<path d="M311.553 36.1295H296.111V18.3787H299.455V33.3584H309.317V18.3787H312.661V33.3584H314.857V40.0347H311.543V36.1295H311.553Z" fill="#414141"/>
<path d="M318.999 18.3787H322.343V34.315L330.229 18.3787H336.278V36.1295H332.934V20.1933L325.058 36.1295H319.009V18.3787H318.999Z" fill="#414141"/>
<path d="M344.553 36.1295H340.41L345.551 29.7787C342.097 29.3152 340.73 27.688 340.73 24.2069C340.73 19.9862 342.706 18.3886 347.857 18.3886H357V36.1394H353.656V29.9266H349.593L344.553 36.1394V36.1295ZM349.693 21.1498C345.551 21.1498 344.333 21.8204 344.333 24.128C344.333 26.4356 345.561 27.1457 349.693 27.1457H353.656V21.1498H349.693Z" fill="#414141"/>
<path fill-rule="evenodd" clip-rule="evenodd" d="M0 26.0049C0 11.6662 11.7586 0 26.2023 0C40.4168 0 52.4046 11.6724 52.4046 25.9951C52.4046 40.3338 40.646 52 26.2023 52C12.0329 52 0 40.412 0 26.0049ZM26.2123 51.2702C40.2667 51.2702 51.6659 39.959 51.6659 26.0049C51.6656 25.6405 51.6576 25.2779 51.6419 24.9172C51.0583 11.5042 39.5037 0.749479 26.2023 0.749479C12.1479 0.749479 0.748637 12.0607 0.748637 26.0148C0.748637 39.9501 12.509 51.2702 26.2123 51.2702Z" fill="#414141"/>
<path d="M18.676 38.4502H18.8457H19.0653C20.0934 38.4502 21.6506 38.4699 22.3892 39.466L22.4791 39.6336C23.6669 42.6217 25.9128 43.3711 27.5898 43.4796C30.8039 43.667 34.4273 41.6651 36.0244 38.7855C36.5672 37.8105 36.7392 36.9705 36.907 36.1511L36.9128 36.1229L36.9164 36.1053C37.2147 34.6612 37.521 33.1781 39.8275 31.6753C40.8276 30.8714 42.2803 30.5526 43.6937 30.2425L43.7703 30.2257C46.7549 29.5945 48.4119 29.0817 47.9128 25.9359C47.4935 23.3423 45.2376 22.1786 43.2213 22.3857C41.724 22.5337 40.0072 23.5494 40.117 25.8965C40.1269 26.1529 40.1768 26.429 40.2268 26.6952C40.3565 27.4053 40.4963 28.2041 40.097 28.8746C39.0489 30.6103 37.891 31.4091 35.9745 31.7148C34.9164 31.8824 34.048 31.1329 33.5789 30.3736C31.9019 27.6913 30.8239 23.3719 30.754 19.1117V18.6186L31.2032 18.4214C33.0398 17.6423 33.529 15.7785 33.3792 14.2894C33.1996 12.5439 32.1016 10.5815 30.0353 10.1574C28.1388 9.60516 26.8212 10.0489 26.1524 11.4197C25.1642 13.4314 25.9028 17.0704 28.3184 18.7567L28.558 18.9243L28.6179 19.2005C29.9455 25.0188 30.8738 31.1625 27.7195 32.5826C27.3402 32.7502 26.5616 32.8587 25.9428 32.4347C22.6649 30.2298 20.0434 26.8853 17.5124 23.6563L17.4981 23.6382C16.8393 22.7309 17.029 22.0209 17.2386 21.6264C17.9773 19.3977 16.48 16.7449 14.7631 15.2164C13.1061 14.0823 11.4691 13.9048 10.2414 14.7825C8.83392 15.7884 8.20506 17.948 8.76404 19.802C9.12339 20.9755 10.2613 22.9676 13.8648 23.1254L13.8707 23.1261C14.0287 23.1456 14.1964 23.1663 14.3738 23.2831C17.019 25.0089 23.9863 32.3656 22.539 35.5608C21.5356 37.7691 17.7342 36.793 16.4484 36.4629L16.4301 36.4582L16.0807 36.3694L15.931 36.044C15.4219 34.9099 13.3856 33.8547 11.5689 33.7857C10.6706 33.7463 9.46277 33.9435 8.83392 35.0184C8.27493 37.0597 9.36295 39.9788 11.1796 41.3101C11.9283 41.8525 13.0862 42.3258 14.3738 41.4876C14.6932 41.2312 15.0226 40.8466 15.362 40.4423C16.1506 39.5054 17.039 38.4601 18.656 38.4601L18.676 38.4502Z" fill="#D4F21D"/>
<path fill-rule="evenodd" clip-rule="evenodd" d="M48.6714 25.8373C47.763 20.1274 39.1288 20.3345 39.3883 25.9556C39.4013 26.2458 39.4571 26.5517 39.5122 26.8545C39.6258 27.478 39.7369 28.0882 39.4681 28.5196C38.5897 29.9791 37.6714 30.7188 35.8647 31.0047C35.156 31.1132 34.5271 30.4919 34.2177 30.0087C32.5807 27.3855 31.5725 23.1747 31.5026 19.1216C35.7549 17.3169 34.587 10.3645 30.185 9.45724C23.9065 7.62299 23.4972 16.3307 27.8792 19.378C28.6878 22.9183 30.3747 30.5807 27.4101 31.9219C27.2703 31.981 26.7613 32.1092 26.362 31.843C23.2876 29.772 20.882 26.7741 18.0871 23.2043C17.8076 22.8196 17.6678 22.3759 17.9274 21.9518C18.8457 19.3385 17.1288 16.3505 15.2722 14.6937C7.65606 9.42765 3.87295 23.4705 13.8448 23.8946C13.8847 23.8946 13.9346 23.8946 13.9746 23.934C17.7876 26.429 28.3684 38.825 16.6397 35.7777C15.6016 33.4504 9.90197 31.5767 8.15515 34.762C6.99726 38.6672 11.01 44.6038 14.8031 42.1286C15.2344 41.7871 15.5962 41.3599 15.9528 40.9389C16.7186 40.0348 17.4605 39.1589 18.8157 39.2194C18.885 39.2202 18.9585 39.2206 19.0355 39.2209C19.9233 39.2251 21.2675 39.2315 21.8003 39.9393C24.6152 46.9903 33.7585 44.4658 36.6932 39.18C37.2943 38.0993 37.4848 37.1676 37.6597 36.3126C37.9523 34.8817 38.201 33.6658 40.2567 32.3262C41.197 31.571 42.5763 31.2766 43.9518 30.9831C46.6356 30.4103 49.3049 29.8407 48.6714 25.857V25.8373ZM18.8457 38.4502H18.676L18.656 38.4601C17.039 38.4601 16.1506 39.5054 15.362 40.4423C15.0226 40.8466 14.6932 41.2312 14.3738 41.4876C13.0862 42.3258 11.9283 41.8525 11.1796 41.3101C9.36295 39.9788 8.27493 37.0597 8.83392 35.0184C9.46277 33.9435 10.6706 33.7463 11.5689 33.7857C13.3856 33.8547 15.4219 34.9099 15.931 36.044L16.0807 36.3694L16.4301 36.4582L16.4484 36.4629C17.7342 36.793 21.5356 37.7691 22.539 35.5608C23.9863 32.3656 17.019 25.0089 14.3738 23.2831C14.1964 23.1663 14.0287 23.1456 13.8707 23.1261L13.8648 23.1254C10.2613 22.9676 9.12339 20.9755 8.76404 19.802C8.20506 17.948 8.83392 15.7884 10.2414 14.7825C11.4691 13.9048 13.1061 14.0823 14.7631 15.2164C16.48 16.7449 17.9773 19.3977 17.2386 21.6264C17.029 22.0209 16.8393 22.7309 17.4981 23.6382L17.5124 23.6563C20.0434 26.8853 22.6649 30.2298 25.9428 32.4347C26.5616 32.8587 27.3402 32.7502 27.7195 32.5826C30.8738 31.1625 29.9455 25.0188 28.6179 19.2005L28.558 18.9243L28.3184 18.7567C25.9028 17.0704 25.1642 13.4314 26.1524 11.4197C26.8212 10.0489 28.1388 9.60516 30.0353 10.1574C32.1016 10.5815 33.1996 12.5439 33.3792 14.2894C33.529 15.7785 33.0398 17.6423 31.2032 18.4214L30.754 18.6186V19.1117C30.8239 23.3719 31.9019 27.6913 33.5789 30.3736C34.048 31.1329 34.9164 31.8824 35.9745 31.7148C37.891 31.4091 39.0489 30.6103 40.097 28.8746C40.4963 28.2041 40.3565 27.4053 40.2268 26.6952C40.1768 26.429 40.1269 26.1529 40.117 25.8965C40.0072 23.5494 41.724 22.5337 43.2213 22.3857C45.2376 22.1786 47.4935 23.3423 47.9128 25.9359C48.4119 29.0817 46.7549 29.5945 43.7703 30.2257L43.6937 30.2425C42.2803 30.5526 40.8276 30.8714 39.8275 31.6753C37.521 33.1781 37.2147 34.6612 36.9164 36.1053L36.9128 36.1229L36.907 36.1511C36.7392 36.9705 36.5672 37.8105 36.0244 38.7855C34.4273 41.6651 30.8039 43.667 27.5898 43.4796C25.9128 43.3711 23.6669 42.6217 22.4791 39.6336L22.3892 39.466C21.6506 38.4699 20.0934 38.4502 19.0653 38.4502H18.8457Z" fill="#414141"/>
<path fill-rule="evenodd" clip-rule="evenodd" d="M28.0489 44.9786C27.8693 44.9786 27.6796 44.9786 27.4999 44.9588C24.5653 44.7715 22.3094 43.1246 21.1415 40.2943C20.7903 39.957 19.7147 39.9399 19.0977 39.9301L19.0553 39.9295H18.7958C17.8375 39.8703 17.3085 40.4521 16.5199 41.3791L16.475 41.4316C16.1098 41.8593 15.732 42.3015 15.2622 42.671C13.6551 43.7163 11.8684 43.6374 10.3012 42.4935C7.92557 40.7578 6.63792 37.1879 7.42648 34.5155L7.48637 34.3675C8.26495 32.9475 9.7223 32.2177 11.6388 32.2867C13.8648 32.3755 16.2305 33.5983 17.1388 35.0973C19.3847 35.6397 20.892 35.5904 21.1814 34.9494C22.0099 33.1151 16.7695 26.6854 13.6751 24.5849C10.441 24.4172 8.12521 22.8295 7.32666 20.2162C6.57802 17.7409 7.42648 14.9501 9.36295 13.5695C11.1297 12.3171 13.4355 12.4847 15.6914 14.0527C17.9174 16.0349 19.6343 19.2695 18.6261 22.1589L18.5562 22.297C18.5562 22.297 18.4664 22.435 18.686 22.7408C21.7005 26.5868 23.9065 29.2691 26.7713 31.202C26.8511 31.2513 27.0408 31.2414 27.1106 31.2118C29.4763 30.1468 27.8593 22.6421 27.2105 19.7823C24.2658 17.5437 23.5671 13.2934 24.7949 10.7688C25.793 8.71762 27.8393 7.96814 30.3947 8.71762C33.1397 9.27973 34.6369 11.8536 34.8665 14.1316C35.1061 16.4984 34.1179 18.5299 32.2613 19.5456C32.391 23.4015 33.3692 27.208 34.8466 29.5847C35.0662 29.9397 35.4554 30.275 35.7349 30.2454C37.2122 30.0087 37.9908 29.4762 38.8093 28.1153C38.9198 27.9333 38.8434 27.466 38.7761 27.0539C38.7162 26.7285 38.6396 26.2909 38.6297 25.9556C38.4799 22.7901 40.7558 21.1333 43.0816 20.9065C45.7367 20.6402 48.8511 22.228 49.41 25.6894C50.1584 30.3719 46.8072 31.0831 44.1126 31.655L44.1097 31.6556L44.0884 31.6602C42.7688 31.9445 41.53 32.2113 40.7258 32.8489C38.8802 34.0612 38.6798 35.037 38.4005 36.3968L38.4001 36.399C38.2204 37.2866 38.0108 38.3023 37.352 39.4758C35.5553 42.7104 31.7123 44.949 28.0589 44.949L28.0489 44.9786ZM39.3883 25.9556C39.1288 20.3345 47.763 20.1274 48.6714 25.8373V25.857C49.3049 29.8407 46.6356 30.4103 43.9518 30.9831C42.5763 31.2766 41.197 31.571 40.2567 32.3262C38.201 33.6658 37.9523 34.8817 37.6597 36.3126C37.4848 37.1676 37.2943 38.0993 36.6932 39.18C33.7585 44.4658 24.6152 46.9903 21.8003 39.9393C21.2675 39.2315 19.9233 39.2251 19.0355 39.2209C18.9585 39.2206 18.885 39.2202 18.8157 39.2194C17.4605 39.1589 16.7186 40.0348 15.9528 40.9389C15.5962 41.3599 15.2344 41.7871 14.8031 42.1286C11.01 44.6038 6.99726 38.6672 8.15515 34.762C9.90197 31.5767 15.6016 33.4504 16.6397 35.7777C28.3684 38.825 17.7876 26.429 13.9746 23.934C13.9346 23.8946 13.8847 23.8946 13.8448 23.8946C3.87295 23.4705 7.65606 9.42765 15.2722 14.6937C17.1288 16.3505 18.8457 19.3385 17.9274 21.9518C17.6678 22.3759 17.8076 22.8196 18.0871 23.2043C20.882 26.7741 23.2876 29.772 26.362 31.843C26.7613 32.1092 27.2703 31.981 27.4101 31.9219C30.3747 30.5807 28.6878 22.9183 27.8792 19.378C23.4972 16.3307 23.9065 7.62299 30.185 9.45724C34.587 10.3645 35.7549 17.3169 31.5026 19.1216C31.5725 23.1747 32.5807 27.3855 34.2177 30.0087C34.5271 30.4919 35.156 31.1132 35.8647 31.0047C37.6714 30.7188 38.5897 29.9791 39.4681 28.5196C39.7369 28.0882 39.6258 27.478 39.5122 26.8545C39.4571 26.5517 39.4013 26.2458 39.3883 25.9556Z" fill="#414141"/>
<path fill-rule="evenodd" clip-rule="evenodd" d="M28.0489 44.9786C27.8693 44.9786 27.6796 44.9786 27.4999 44.9588C24.5653 44.7715 22.3094 43.1246 21.1415 40.2943C20.7903 39.957 19.7147 39.9399 19.0977 39.9301L19.0553 39.9295H18.7958C17.8375 39.8703 17.3085 40.4521 16.5199 41.3791L16.475 41.4316C16.1098 41.8593 15.732 42.3015 15.2622 42.671C13.6551 43.7163 11.8684 43.6374 10.3012 42.4935C7.92557 40.7578 6.63792 37.1879 7.42648 34.5155L7.48637 34.3675C8.26495 32.9475 9.7223 32.2177 11.6388 32.2867C13.8648 32.3755 16.2305 33.5983 17.1388 35.0973C19.3847 35.6397 20.892 35.5904 21.1814 34.9494C22.0099 33.1151 16.7695 26.6854 13.6751 24.5849C10.441 24.4172 8.12521 22.8295 7.32666 20.2162C6.57802 17.7409 7.42648 14.9501 9.36295 13.5695C11.1297 12.3171 13.4355 12.4847 15.6914 14.0527C17.9174 16.0349 19.6343 19.2695 18.6261 22.1589L18.5562 22.297C18.5562 22.297 18.4664 22.435 18.686 22.7408C21.7005 26.5868 23.9065 29.2691 26.7713 31.202C26.8511 31.2513 27.0408 31.2414 27.1106 31.2118C29.4763 30.1468 27.8593 22.6421 27.2105 19.7823C24.2658 17.5437 23.5671 13.2934 24.7949 10.7688C25.793 8.71762 27.8393 7.96814 30.3947 8.71762C33.1397 9.27973 34.6369 11.8536 34.8665 14.1316C35.1061 16.4984 34.1179 18.5299 32.2613 19.5456C32.391 23.4015 33.3692 27.208 34.8466 29.5847C35.0662 29.9397 35.4554 30.275 35.7349 30.2454C37.2122 30.0087 37.9908 29.4762 38.8093 28.1153C38.9198 27.9333 38.8434 27.466 38.7761 27.0539C38.7162 26.7285 38.6396 26.2909 38.6297 25.9556C38.4799 22.7901 40.7558 21.1333 43.0816 20.9065C45.7367 20.6402 48.8511 22.228 49.41 25.6894C50.1584 30.3719 46.8072 31.0831 44.1126 31.655L44.1097 31.6556L44.0884 31.6602C42.7688 31.9445 41.53 32.2113 40.7258 32.8489C38.8802 34.0612 38.6798 35.037 38.4005 36.3968L38.4001 36.399C38.2204 37.2866 38.0108 38.3023 37.352 39.4758C35.5553 42.7104 31.7123 44.949 28.0589 44.949L28.0489 44.9786ZM26.2123 50.5405C39.8375 50.5405 50.9173 39.535 50.9173 26.0148C50.9173 12.4884 39.6491 1.4891 26.2123 1.4891C12.5871 1.4891 1.50726 12.4946 1.50726 26.0148C1.50726 39.6201 12.8312 50.5405 26.2123 50.5405Z" fill="#C291F4"/>
<path fill-rule="evenodd" clip-rule="evenodd" d="M51.6659 26.0049C51.6659 39.959 40.2667 51.2702 26.2123 51.2702C12.509 51.2702 0.748637 39.9501 0.748637 26.0148C0.748637 12.0607 12.1479 0.749479 26.2023 0.749479C39.5037 0.749479 51.0583 11.5042 51.6419 24.9172C51.6576 25.2779 51.6656 25.6405 51.6659 26.0049ZM26.2123 50.5405C12.8312 50.5405 1.50726 39.6201 1.50726 26.0148C1.50726 12.4946 12.5871 1.4891 26.2123 1.4891C39.6491 1.4891 50.9173 12.4884 50.9173 26.0148C50.9173 39.535 39.8375 50.5405 26.2123 50.5405Z" fill="#414141"/>
</svg>
