<svg width="23" height="24" viewBox="0 0 23 24" fill="none" xmlns="http://www.w3.org/2000/svg">
<g clip-path="url(#clip0_1101_2950)">
<path d="M11.4999 22.6794C17.3975 22.6794 22.1784 17.8984 22.1784 12.0008C22.1784 6.10323 17.3975 1.32227 11.4999 1.32227C5.60225 1.32227 0.821289 6.10323 0.821289 12.0008C0.821289 17.8984 5.60225 22.6794 11.4999 22.6794Z" stroke="#8F8E8E" stroke-linecap="round" stroke-linejoin="round"/>
<path d="M6.07861 13.6445C6.90004 16.6017 10.1858 18.4088 13.1429 17.5874C14.95 16.9302 16.4286 15.4517 16.9215 13.6445" stroke="#8F8E8E" stroke-linecap="round" stroke-linejoin="round"/>
<path d="M7.8857 9.37199C7.70424 9.37199 7.55713 9.22488 7.55713 9.04341C7.55713 8.86195 7.70424 8.71484 7.8857 8.71484" stroke="#8F8E8E" stroke-linecap="round" stroke-linejoin="round"/>
<path d="M7.88574 9.37199C8.06721 9.37199 8.21431 9.22488 8.21431 9.04341C8.21431 8.86195 8.06721 8.71484 7.88574 8.71484" stroke="#8F8E8E" stroke-linecap="round" stroke-linejoin="round"/>
<path d="M15.1142 9.37199C14.9328 9.37199 14.7856 9.22488 14.7856 9.04341C14.7856 8.86195 14.9328 8.71484 15.1142 8.71484" stroke="#8F8E8E" stroke-linecap="round" stroke-linejoin="round"/>
<path d="M15.1143 9.37199C15.2957 9.37199 15.4428 9.22488 15.4428 9.04341C15.4428 8.86195 15.2957 8.71484 15.1143 8.71484" stroke="#8F8E8E" stroke-linecap="round" stroke-linejoin="round"/>
</g>
<defs>
<clipPath id="clip0_1101_2950">
<rect width="23" height="23" fill="white" transform="translate(0 0.5)"/>
</clipPath>
</defs>
</svg>
