<svg width="61" height="61" viewBox="0 0 61 61" fill="none" xmlns="http://www.w3.org/2000/svg">
<path fill-rule="evenodd" clip-rule="evenodd" d="M56.75 29.1647C56.75 11.9682 50.6923 4.08008 30.5 4.08008C10.3077 4.08008 4.25 11.9682 4.25 29.1647C4.25 41.4029 7.31805 48.9266 16.3654 52.2479V58.0378C16.3654 60.1689 19.0394 61.1424 20.4246 59.5155L25.0932 54.0321C26.7712 54.1773 28.5711 54.2493 30.5 54.2493C50.6923 54.2493 56.75 46.3612 56.75 29.1647ZM26.2086 50.0767C27.5471 50.183 28.976 50.2357 30.5 50.2357C47.5858 50.2357 52.7115 43.6097 52.7115 29.1647C52.7115 14.7196 47.5858 8.09361 30.5 8.09361C13.4142 8.09361 8.28846 14.7196 8.28846 29.1647C8.28846 39.3749 10.8493 45.6787 18.3846 48.4972V57.0749C18.3846 57.8226 19.3229 58.1642 19.8089 57.5934L26.2086 50.0767Z" fill="#BFC8D0"/>
<path d="M30.5 48.8078C28.9562 48.8078 27.5088 48.7542 26.1529 48.6461L19.67 56.2895C19.1777 56.8699 18.2273 56.5226 18.2273 55.7622V47.04C10.5941 44.1739 8 37.7638 8 27.3814C8 12.6928 13.1923 5.95508 30.5 5.95508C47.8077 5.95508 53 12.6928 53 27.3814C53 42.07 47.8077 48.8078 30.5 48.8078Z" fill="#9179EE"/>
<path fill-rule="evenodd" clip-rule="evenodd" d="M56.75 27.2897C56.75 10.0932 50.6923 2.20508 30.5 2.20508C10.3077 2.20508 4.25 10.0932 4.25 27.2897C4.25 39.5279 7.31805 47.0516 16.3654 50.3729V56.1628C16.3654 58.2939 19.0394 59.2674 20.4246 57.6405L25.0932 52.1571C26.7712 52.3023 28.5711 52.3743 30.5 52.3743C50.6923 52.3743 56.75 44.4862 56.75 27.2897ZM26.2086 48.2017C27.5471 48.308 28.976 48.3607 30.5 48.3607C47.5858 48.3607 52.7115 41.7347 52.7115 27.2897C52.7115 12.8446 47.5858 6.21861 30.5 6.21861C13.4142 6.21861 8.28846 12.8446 8.28846 27.2897C8.28846 37.4999 10.8493 43.8037 18.3846 46.6222V55.1999C18.3846 55.9476 19.3229 56.2892 19.8089 55.7184L26.2086 48.2017Z" fill="white"/>
<path d="M22.0673 23.1245L22.1435 23.0822C22.4356 22.9205 23.1804 22.4546 23.7297 21.9516C23.8916 21.8033 23.9816 21.5834 24.0038 21.3096C24.0147 21.1758 24.007 21.0477 23.991 20.9437C23.9783 20.861 23.9639 20.8155 23.9608 20.8049C23.9549 20.7943 23.941 20.7699 23.9151 20.7279C23.8773 20.6666 23.826 20.5874 23.7616 20.4914C23.6332 20.3 23.4646 20.0593 23.2733 19.7938C22.8909 19.2629 22.432 18.6519 22.0523 18.1709C21.3172 17.2399 20.2262 16.1504 19.5223 15.5332C19.466 15.4838 19.325 15.4166 19.0545 15.421C18.7907 15.4252 18.5223 15.4983 18.3509 15.5812M22.0673 23.1245L18.3509 15.5812M22.0673 23.1245L22.0002 23.18M22.0673 23.1245L22.0002 23.18M18.3509 15.5812C16.5113 16.4712 15.6775 17.3986 14.89 18.3424C14.6511 18.6286 14.5605 18.9738 14.5625 19.3351C14.5646 19.7092 14.6676 20.039 14.7406 20.1933L14.7715 20.2586L14.7921 20.3278C15.0855 21.3173 16.1639 23.4598 17.7759 25.8771C19.3744 28.2743 21.4274 30.8352 23.6034 32.6874C27.0627 35.632 30.7578 37.6315 33.693 38.8942C35.1593 39.525 36.4291 39.969 37.3754 40.2537C37.849 40.3961 38.2366 40.4972 38.5235 40.5616C38.7787 40.619 38.9075 40.6363 38.9422 40.641C38.951 40.6422 38.9538 40.6426 38.951 40.6426C39.7292 40.6426 40.7002 40.1353 41.6334 39.326C42.5498 38.5313 43.2266 37.6228 43.4489 37.147C43.5688 36.8904 43.5419 36.7129 43.4921 36.5839C43.4298 36.4225 43.3145 36.3063 43.2653 36.2708L43.2649 36.2705C42.6733 35.8434 41.361 34.9032 40.7811 34.5129C40.0323 34.009 38.4829 33.0153 37.1798 32.5748C36.4918 32.3422 35.9479 32.6576 35.7809 32.8098C35.5435 33.0923 34.9914 33.7207 34.3866 34.3234C33.4445 35.2621 32.3204 35.0633 31.8515 34.9804C31.8388 34.9781 31.8265 34.976 31.8147 34.9739L31.9511 34.1946L31.8147 34.9739C31.746 34.9619 31.7023 34.9543 31.666 34.9493C31.6512 34.9472 31.6422 34.9462 31.6379 34.9458M18.3509 15.5812L31.6379 34.9458M22.0002 23.18C21.4816 23.609 20.7042 24.7865 21.3852 26.2419C21.9526 27.4547 23.2169 29.9314 25.4384 31.7975C27.611 33.6225 29.9309 34.6042 31.4548 34.9256L31.5505 34.9458M22.0002 23.18L31.5505 34.9458M31.5505 34.9458H31.6379M31.5505 34.9458H31.6379M31.0186 12.5478C31.0192 12.5473 31.0197 12.5468 31.0203 12.5462C31.0337 12.5336 31.0615 12.5176 31.1048 12.5176C38.5898 12.5176 44.5595 18.2135 44.5625 25.1233C44.5613 25.1249 44.5593 25.1272 44.5563 25.1301C44.5429 25.1427 44.5151 25.1587 44.4718 25.1587C44.4284 25.1587 44.4007 25.1427 44.3872 25.1301C44.3842 25.1272 44.3822 25.1249 44.381 25.1232C44.3781 18.1416 38.3809 12.5781 31.1048 12.5781C31.0615 12.5781 31.0337 12.5621 31.0203 12.5494C31.0197 12.5489 31.0192 12.5483 31.0186 12.5478ZM31.0186 20.2898C31.0192 20.2892 31.0197 20.2887 31.0203 20.2881C31.0337 20.2755 31.0615 20.2595 31.1048 20.2595C34.0467 20.2595 36.3337 22.4892 36.3367 25.1233C36.3355 25.1249 36.3335 25.1272 36.3305 25.1301C36.3171 25.1427 36.2893 25.1587 36.246 25.1587C36.2026 25.1587 36.1749 25.1427 36.1614 25.1301C36.1584 25.1272 36.1564 25.1249 36.1552 25.1232C36.1523 22.4174 33.838 20.32 31.1048 20.32C31.0615 20.32 31.0337 20.304 31.0203 20.2914C31.0197 20.2908 31.0192 20.2903 31.0186 20.2898ZM31.0187 16.4188C31.0192 16.4183 31.0197 16.4177 31.0203 16.4172C31.0337 16.4045 31.0615 16.3885 31.1048 16.3885C36.3183 16.3885 40.4466 20.3514 40.4496 25.1233C40.4484 25.1249 40.4464 25.1272 40.4434 25.1301C40.43 25.1427 40.4022 25.1587 40.3589 25.1587C40.3155 25.1587 40.2878 25.1427 40.2743 25.1301C40.2713 25.1272 40.2693 25.1249 40.2681 25.1233C40.2652 20.2795 36.1094 16.449 31.1048 16.449C31.0615 16.449 31.0337 16.4331 31.0203 16.4204C31.0197 16.4198 31.0192 16.4193 31.0187 16.4188Z" fill="white" stroke="white" stroke-width="1.875" stroke-linecap="round"/>
</svg>
