<svg width="61" height="60" viewBox="0 0 61 60" fill="none" xmlns="http://www.w3.org/2000/svg">
<circle cx="30.5" cy="29.998" r="26.25" fill="#0077FF"/>
<path d="M32.0073 41.248C20.4762 41.248 13.899 33.5059 13.625 20.623H19.4011C19.5908 30.0788 23.8491 34.084 27.222 34.9098V20.623H32.6608V28.7781C35.9915 28.4271 39.4909 24.7109 40.6714 20.623H46.1102C45.6653 22.7431 44.7786 24.7505 43.5054 26.5196C42.2322 28.2887 40.6 29.7815 38.7109 30.9046C40.8196 31.9308 42.6822 33.3833 44.1757 35.1662C45.6691 36.9492 46.7596 39.0221 47.375 41.248H41.3881C40.8357 39.3146 39.7128 37.5839 38.1603 36.2727C36.6078 34.9616 34.6947 34.1284 32.6608 33.8776V41.248H32.0073Z" fill="white"/>
</svg>
