<svg width="61" height="61" viewBox="0 0 61 61" fill="none" xmlns="http://www.w3.org/2000/svg">
<path fill-rule="evenodd" clip-rule="evenodd" d="M30.5 58.4551C44.9975 58.4551 56.75 46.7026 56.75 32.2051C56.75 17.7076 44.9975 5.95508 30.5 5.95508C16.0025 5.95508 4.25 17.7076 4.25 32.2051C4.25 36.913 5.48937 41.3314 7.65964 45.1519L4.25 58.4551L17.9654 55.2747C21.6901 57.3028 25.9605 58.4551 30.5 58.4551ZM30.5 54.4166C42.7671 54.4166 52.7115 44.4722 52.7115 32.2051C52.7115 19.938 42.7671 9.99354 30.5 9.99354C18.2329 9.99354 8.28846 19.938 8.28846 32.2051C8.28846 36.9415 9.77094 41.3316 12.2972 44.9367L10.3077 52.3974L17.8999 50.4993C21.4801 52.9699 25.8211 54.4166 30.5 54.4166Z" fill="#BFC8D0"/>
<path d="M53 30.3301C53 42.7565 42.9264 52.8301 30.5 52.8301C25.7603 52.8301 21.3629 51.3646 17.7362 48.8619L10.0455 50.7846L12.0608 43.2271C9.50173 39.5751 8 35.128 8 30.3301C8 17.9037 18.0736 7.83008 30.5 7.83008C42.9264 7.83008 53 17.9037 53 30.3301Z" fill="url(#paint0_linear_642_2138)"/>
<path fill-rule="evenodd" clip-rule="evenodd" d="M30.5 56.5801C44.9975 56.5801 56.75 44.8276 56.75 30.3301C56.75 15.8326 44.9975 4.08008 30.5 4.08008C16.0025 4.08008 4.25 15.8326 4.25 30.3301C4.25 35.038 5.48937 39.4564 7.65964 43.2769L4.25 56.5801L17.9654 53.3997C21.6901 55.4278 25.9605 56.5801 30.5 56.5801ZM30.5 52.5416C42.7671 52.5416 52.7115 42.5972 52.7115 30.3301C52.7115 18.063 42.7671 8.11854 30.5 8.11854C18.2329 8.11854 8.28846 18.063 8.28846 30.3301C8.28846 35.0665 9.77094 39.4566 12.2972 43.0617L10.3077 50.5224L17.8999 48.6243C21.4801 51.0949 25.8211 52.5416 30.5 52.5416Z" fill="white"/>
<path d="M23.9375 18.1412C23.3134 16.8876 22.356 16.9986 21.3888 16.9986C19.6602 16.9986 16.9648 19.0691 16.9648 22.9226C16.9648 26.0807 18.3565 29.5377 23.0458 34.7091C27.5713 39.6999 33.5176 42.2817 38.4541 42.1938C43.3906 42.1059 44.4063 37.8579 44.4063 36.4233C44.4063 35.7874 44.0117 35.4702 43.7399 35.384C42.0576 34.5766 38.955 33.0723 38.249 32.7897C37.5431 32.507 37.1745 32.8893 36.9453 33.0973C36.3051 33.7074 35.0361 35.5054 34.6016 35.9098C34.1671 36.3142 33.5193 36.1095 33.2497 35.9567C32.2577 35.5586 29.568 34.3622 27.424 32.2838C24.7725 29.7135 24.6169 28.8292 24.1173 28.042C23.7177 27.4123 24.0109 27.0259 24.1573 26.857C24.7286 26.1979 25.5174 25.1802 25.8711 24.6744C26.2249 24.1687 25.9441 23.4008 25.7755 22.9226C25.0508 20.8658 24.4368 19.1441 23.9375 18.1412Z" fill="white"/>
<defs>
<linearGradient id="paint0_linear_642_2138" x1="50.1875" y1="13.4551" x2="8" y2="52.8301" gradientUnits="userSpaceOnUse">
<stop stop-color="#5BD066"/>
<stop offset="1" stop-color="#27B43E"/>
</linearGradient>
</defs>
</svg>
